# xmcd
#
# Track frame offsets:
#	150
#	98319
#	123386
#	185966
#	201087
#	250441
#	292206
#	327760
#
# Disc length: 4551 seconds
#
# Revision: 1
# Processed by: cddbd v1.5.1PL0 Copyright (c) Steve Scherf et al.
# Submitted via: audiograbber 1.82.01
#
DISCID=7811c508
DTITLE=Jürgen Kerth - Gloriosa live
DYEAR=1900
DGENRE=Blues
TTITLE0=Gloriosa
TTITLE1=Helmut
TTITLE2=Ich finde keine Ruh'
TTITLE3=Hab' nichts getan
TTITLE4=Ich liebe die Eine
TTITLE5=He, junge Mutti
TTITLE6=Oh, wie würd' ich euch beneiden
TTITLE7=Gospelsong
EXTD=
EXTT0=
EXTT1=
EXTT2=
EXTT3=
EXTT4=
EXTT5=
EXTT6=
EXTT7=
PLAYORDER=
